:version 1.10
:name ASF
:units
  mass 1
  length 1
  angle deg
:documentation
  ASF file generated by Kaydara
:root
  axis xyz
  order  tx ty tz rx ry rz
  position 0 0 0
  orientation 0 0 0
:bonedata
  begin
    id 1
    name RightUpLegDummy
    direction -0.718183 -0.695806 0.00816078
    length 4.904
    axis 0 0 0 xyz
  end
  begin
    id 2
    name RightUpLeg
    direction 3.53373e-006 -0.995788 0.0916898
    length 17.4976
    axis -3.49089 -0.000906625 0.000286804 xyz
    dof rx ry rz
  end
  begin
    id 3
    name RightLeg
    direction 0.00371092 -0.995096 -0.0988419
    length 16.5821
    axis 3.68512 0.0193738 -0.131023 xyz
    dof rx ry rz
  end
  begin
    id 4
    name RightFoot
    direction 0.00079151 -0.46099 0.887405
    length 3.77069
    axis 4.81691e-005 -0.120479 -0.188788 xyz
    dof rx ry rz
  end
  begin
    id 5
    name RightToes
    direction 0 0 0
    length 0
    axis 0 0 0 xyz
    dof rx ry rz
  end
  begin
    id 6
    name SpineDummy
    direction 8.3039e-015 1 4.57515e-016
    length 4.6813
    axis 0 0 0 xyz
  end
  begin
    id 7
    name Spine
    direction -3.15643e-008 0.999988 0.00495137
    length 10.1015
    axis -0.001389 0.000121418 2.40972e-006 xyz
    dof rx ry rz
  end
  begin
    id 8
    name Spine1
    direction 0 0 0
    length 0
    axis -0.001389 0.000121451 1.30017e-006 xyz
    dof rx ry rz
  end
  begin
    id 9
    name HEadDummy
    direction -1.99912e-008 0.999999 0.00127422
    length 3.43865
    axis -0.001389 0.000121451 1.30017e-006 xyz
  end
  begin
    id 10
    name HEad
    direction 0 0 0
    length 0
    axis 0 0 0 xyz
    dof rx ry rz
  end
  begin
    id 11
    name LeftShoulder1Dummy
    direction 0.998891 -0.0402509 -0.0244456
    length 3.5433
    axis -0.001389 0.000121451 1.30017e-006 xyz
  end
  begin
    id 12
    name LeftShoulder1
    direction 0.99951 -0.000327763 0.0313091
    length 4.05031
    axis -0.001389 0.000121451 1.30017e-006 xyz
    dof rx ry rz
  end
  begin
    id 13
    name LeftArm
    direction 0.998561 -0.00100056 -0.0536182
    length 10.3537
    axis -23.1894 0.134784 0.967509 xyz
    dof rx ry rz
  end
  begin
    id 14
    name LeftForeArm
    direction 0.998903 0.00866432 0.046012
    length 8.70632
    axis -9.91835 -0.06569 -0.177794 xyz
    dof rx ry rz
  end
  begin
    id 15
    name LeftHand
    direction 0 0 0
    length 0
    axis 0 0 0 xyz
    dof rx ry rz
  end
  begin
    id 16
    name RightShoulderDummy
    direction -0.998891 -0.0402509 -0.0244414
    length 3.5433
    axis -0.001389 0.000121451 1.30017e-006 xyz
  end
  begin
    id 17
    name RightShoulder
    direction -0.99951 -0.000327807 0.0313133
    length 4.05031
    axis 0.215806 0.000203643 -0.0068026 xyz
    dof rx ry rz
  end
  begin
    id 18
    name RightArm
    direction -0.998573 -0.000999564 -0.053403
    length 10.3947
    axis -23.2009 -0.134239 -0.964101 xyz
    dof rx ry rz
  end
  begin
    id 19
    name RightForeArm
    direction -0.998898 0.00868028 0.0461306
    length 8.68355
    axis -9.92322 0.0658061 0.178868 xyz
    dof rx ry rz
  end
  begin
    id 20
    name RightHand
    direction 0 0 0
    length 0
    axis 0 0 0 xyz
    dof rx ry rz
  end
  begin
    id 21
    name LeftUpLegDummy
    direction 0.718183 -0.695806 0.00816078
    length 4.904
    axis 0 0 0 xyz
  end
  begin
    id 22
    name LeftUpLeg
    direction -6.81752e-006 -0.995793 0.0916337
    length 17.4976
    axis -3.48766 0.00143442 -0.000524262 xyz
    dof rx ry rz
  end
  begin
    id 23
    name LeftLeg
    direction -0.00601358 -0.995091 -0.0987824
    length 16.5821
    axis 3.68178 -0.00654042 -0.000285133 xyz
    dof rx ry rz
  end
  begin
    id 24
    name LeftFoot
    direction -0.00417578 -0.460984 0.887399
    length 3.77069
    axis 1.87233e-006 4.66016e-005 -8.6538e-006 xyz
    dof rx ry rz
  end
  begin
    id 25
    name LeftToes
    direction 0 0 0
    length 0
    axis 0 0 0 xyz
    dof rx ry rz
  end
:hierarchy
  begin
    root RightUpLegDummy SpineDummy LeftUpLegDummy
    RightUpLegDummy RightUpLeg
    RightUpLeg RightLeg
    RightLeg RightFoot
    RightFoot RightToes
    SpineDummy Spine
    Spine Spine1
    Spine1 HEadDummy LeftShoulder1Dummy RightShoulderDummy
    HEadDummy HEad
    LeftShoulder1Dummy LeftShoulder1
    LeftShoulder1 LeftArm
    LeftArm LeftForeArm
    LeftForeArm LeftHand
    RightShoulderDummy RightShoulder
    RightShoulder RightArm
    RightArm RightForeArm
    RightForeArm RightHand
    LeftUpLegDummy LeftUpLeg
    LeftUpLeg LeftLeg
    LeftLeg LeftFoot
    LeftFoot LeftToes
  end

:SAMPLES-PER-SECOND 30
:FULLY-SPECIFIED
:DEGREES
405
root  9.60483 38.9881 12.7581 171.057 57.1787 168.677
RightUpLeg  -13.6056 -33.2583 -16.7457
RightLeg  34.5986 -16.4963 -12.1293
RightFoot  -7.38173 -0.310656 7.52878
RightToes  0.000481921 0.542163 -0.142578
Spine  26.3532 0.477491 9.36191
Spine1  4.57913 5.85881 -14.3329
HEad  4.31569 -9.77023 0.325792
LeftShoulder1  5.78119 -13.699 -27.4911
LeftArm  2.1096 -24.7974 -54.3726
LeftForeArm  -169.049 -61.2226 -163.878
LeftHand  -0.25398 0.0180481 5.50724
RightShoulder  0.101882 -1.53446 -4.25593
RightArm  -60.2995 46.537 23.4489
RightForeArm  20.6507 50.8854 13.6393
RightHand  -0.696294 0.665891 -13.3736
LeftUpLeg  -21.1657 4.10582 -4.69508
LeftLeg  19.9263 -9.41793 -3.44445
LeftFoot  1.8909 0.286789 -2.57316
LeftToes  1.06245e-005 4.65869e-005 -8.65517e-006
406
root  9.84273 38.7062 13.1224 172.106 53.851 170.58
RightUpLeg  -12.6019 -35.5371 -16.8916
RightLeg  37.3836 -16.0821 -13.0441
RightFoot  -9.24583 -0.202946 7.68845
RightToes  0.000481921 0.542163 -0.142578
Spine  26.1392 0.229246 6.62026
Spine1  6.72368 4.33137 -10.5543
HEad  1.97628 -8.4954 0.668826
LeftShoulder1  5.84066 -13.5981 -28.0536
LeftArm  -0.195989 -24.7042 -54.9585
LeftForeArm  -170.446 -59.3819 -164.915
LeftHand  -0.25398 0.0180481 5.50724
RightShoulder  0.598167 1.22111 4.46943
RightArm  -50.9178 40.9951 30.5629
RightForeArm  58.4246 76.5823 50.5098
RightHand  -0.262696 -2.46045 -8.75866
LeftUpLeg  -22.3329 0.237202 -3.50239
LeftLeg  23.0141 -8.67823 -3.69378
LeftFoot  0.889752 0.303334 -2.88173
LeftToes  1.06245e-005 4.65869e-005 -8.65517e-006
407
root  10.0839 38.478 13.3825 172.062 52.6375 172.223
RightUpLeg  -10.7785 -35.706 -16.971
RightLeg  39.0612 -15.7345 -13.5312
RightFoot  -10.9332 -0.103605 8.1574
RightToes  0.000481921 0.542163 -0.142578
Spine  26.0724 0.103185 5.17338
Spine1  9.32489 3.62688 -8.53416
HEad  0.628562 -7.78607 1.02615
LeftShoulder1  5.65279 -13.2103 -27.7112
LeftArm  -1.34658 -25.2869 -56.0806
LeftForeArm  -173.278 -59.2645 -164.739
LeftHand  -0.25398 0.0180481 5.50724
RightShoulder  1.76354 5.25376 13.169
RightArm  -40.5913 34.4327 38.5878
RightForeArm  166.877 72.6292 150.304
RightHand  -0.0163379 -4.14414 -1.00886
LeftUpLeg  -22.3824 -2.89822 -1.9734
LeftLeg  25.8553 -6.97782 -3.33871
LeftFoot  -0.434586 0.291525 -3.02553
LeftToes  1.06245e-005 4.65869e-005 -8.65517e-006
408
root  10.3234 38.3887 13.5303 171.302 53.7311 172.689
RightUpLeg  -9.65243 -34.7857 -16.8414
RightLeg  39.4781 -15.1707 -13.2711
RightFoot  -12.0126 -0.0341033 8.20893
RightToes  0.000481921 0.542163 -0.142578
Spine  25.775 0.593108 4.78245
Spine1  11.0092 4.25838 -8.54954
HEad  0.700174 -7.9777 1.27338
LeftShoulder1  5.34273 -12.364 -27.5662
LeftArm  -0.614743 -26.1714 -57.2635
LeftForeArm  -172.988 -60.4483 -164.041
LeftHand  -0.25398 0.0180481 5.50724
RightShoulder  3.35654 8.98701 20.521
RightArm  -31.482 26.1762 46.8782
RightForeArm  -166.113 58.8676 166.025
RightHand  0.0948629 -1.66242 3.37357
LeftUpLeg  -21.6537 -4.15778 -0.921873
LeftLeg  27.2436 -5.02457 -2.47637
LeftFoot  -1.49516 0.279136 -3.13752
LeftToes  1.06245e-005 4.65869e-005 -8.65517e-006
409
root  10.5253 38.4883 13.5791 170.75 55.7621 172.712
RightUpLeg  -8.86901 -34.4261 -16.552
RightLeg  38.3012 -14.2574 -12.0475
RightFoot  -12.1124 -0.0315741 7.44909
RightToes  0.000481921 0.542163 -0.142578
Spine  24.9962 1.55619 4.53429
Spine1  11.8424 5.25885 -8.27729
HEad  1.04704 -8.42667 0.960818
LeftShoulder1  5.27397 -11.8085 -28.3531
LeftArm  0.736348 -26.6933 -57.4969
LeftForeArm  -170.566 -61.2621 -163.73
LeftHand  -0.25398 0.0180481 5.50724
RightShoulder  4.82496 11.1258 27.0095
RightArm  -25.6039 19.0382 52.1174
RightForeArm  -155.9 50.9263 170.02
RightHand  0.184939 0.90656 3.38811
LeftUpLeg  -20.4005 -3.83971 -0.159544
LeftLeg  26.8396 -3.70405 -1.70381
LeftFoot  -1.79475 0.296713 -3.42235
LeftToes  1.06245e-005 4.65869e-005 -8.65517e-006
410
root  10.6234 38.7504 13.5478 171.001 57.7663 173.484
RightUpLeg  -7.45013 -34.915 -16.0808
RightLeg  35.3991 -13.0557 -10.0466
RightFoot  -11.2355 -0.0816416 6.33202
RightToes  0.000481921 0.542163 -0.142578
Spine  23.9044 2.18455 4.26938
Spine1  12.2173 5.51781 -7.00166
HEad  1.2621 -8.00859 0.234956
LeftShoulder1  5.43162 -11.8972 -29.1982
LeftArm  1.09361 -26.57 -56.5912
LeftForeArm  -170.157 -60.9359 -163.973
LeftHand  -0.25398 0.0180481 5.50724
RightShoulder  5.41164 11.44 30.2691
RightArm  -22.9438 17.0621 53.6071
RightForeArm  -158.767 49.2219 170.357
RightHand  0.0678179 0.329201 1.26033
LeftUpLeg  -18.6291 -2.58704 0.791948
LeftLeg  25.009 -3.34189 -1.36749
LeftFoot  -1.30031 0.338147 -3.7592
LeftToes  1.06245e-005 4.65869e-005 -8.65517e-006
411
root  10.6238 39.1003 13.4517 171.853 59.8714 174.925
RightUpLeg  -5.45584 -35.4705 -15.4483
RightLeg  31.2262 -11.6604 -7.77841
RightFoot  -9.72984 -0.143968 5.51364
RightToes  0.000481921 0.542163 -0.142578
Spine  22.7186 2.00918 4.36486
Spine1  11.8981 5.06006 -6.27289
HEad  2.13024 -6.5869 0.040426
LeftShoulder1  5.56246 -12.237 -29.2709
LeftArm  0.599716 -26.2485 -55.3603
LeftForeArm  -171.644 -60.1933 -164.317
LeftHand  -0.25398 0.0180481 5.50724
RightShoulder  5.04487 10.9281 28.9542
RightArm  -22.3274 20.2047 53.67
RightForeArm  -170.353 53.1661 167.983
RightHand  -0.0782402 -1.00586 -1.77996
LeftUpLeg  -16.4346 -0.622787 1.87836
LeftLeg  22.2339 -3.53866 -1.2626
LeftFoot  -0.332215 0.375727 -3.88025
LeftToes  1.06245e-005 4.65869e-005 -8.65517e-006
412
root  10.601 39.4513 13.3068 172.531 62.4647 175.89
RightUpLeg  -3.77934 -35.4386 -14.8265
RightLeg  26.7763 -10.1657 -5.76934
RightFoot  -8.0386 -0.202672 5.12175
RightToes  0.000481921 0.542163 -0.142578
Spine  21.4305 1.44488 4.80467
Spine1  10.844 4.60051 -7.00105
HEad  3.80986 -5.05996 0.742024
LeftShoulder1  5.60678 -12.5101 -28.9374
LeftArm  0.205155 -26.4248 -54.4257
LeftForeArm  -171.577 -59.7775 -164.577
LeftHand  -0.25398 0.0180481 5.50724
RightShoulder  4.32525 10.2332 25.3769
RightArm  -21.6951 25.5752 53.6145
RightForeArm  178.532 58.9894 164.207
RightHand  -0.20469 -0.624386 -4.85725
LeftUpLeg  -14.1435 1.97746 2.65279
LeftLeg  19.0195 -3.7269 -1.10248
LeftFoot  0.720304 0.396365 -3.79374
LeftToes  1.06245e-005 4.65869e-005 -8.65517e-006
413
root  10.583 39.7257 13.1318 172.382 65.6248 175.729
RightUpLeg  -2.982 -34.2201 -14.3337
RightLeg  23.1316 -9.00514 -4.34383
RightFoot  -6.51735 -0.252425 4.93336
RightToes  0.000481921 0.542163 -0.142578
Spine  20.1195 1.07324 5.28301
Spine1  9.75586 4.51013 -8.36876
HEad  5.1763 -3.98582 1.50199
LeftShoulder1  5.69916 -12.8406 -28.7904
LeftArm  -0.0197267 -27.3059 -53.8017
LeftForeArm  -169.832 -59.5946 -164.831
LeftHand  -0.25398 0.0180481 5.50724
RightShoulder  3.68389 9.50415 22.0532
RightArm  -19.9416 31.0614 53.6312
RightForeArm  174.761 62.9703 161.178
RightHand  -0.333116 0.434553 -6.73373
LeftUpLeg  -12.0734 4.91904 2.98948
LeftLeg  16.166 -3.5862 -0.888057
LeftFoot  1.49282 0.410825 -3.73274
LeftToes  1.06245e-005 4.65869e-005 -8.65517e-006
414
root  10.5275 39.8754 12.9441 171.222 69.1893 174.68
RightUpLeg  -2.97583 -31.1793 -13.9568
RightLeg  21.0011 -8.84913 -3.56086
RightFoot  -5.4151 -0.289115 4.86732
RightToes  0.000481921 0.542163 -0.142578
Spine  19.2491 0.943784 5.65976
Spine1  9.09847 4.59967 -9.36019
HEad  5.46248 -3.03928 1.49336
LeftShoulder1  5.90597 -13.3898 -28.8818
LeftArm  -0.588154 -28.4303 -53.2971
LeftForeArm  -169.284 -59.2957 -165.052
LeftHand  -0.25398 0.0180481 5.50724
RightShoulder  3.22962 8.96885 19.4602
RightArm  -17.7463 36.5823 53.8707
RightForeArm  176.68 64.929 159.73
RightHand  -0.414143 1.18772 -7.46088
LeftUpLeg  -10.426 7.53193 3.2178
LeftLeg  14.6123 -2.74406 -0.733866
LeftFoot  1.6415 0.421013 -3.78793
LeftToes  1.06245e-005 4.65869e-005 -8.65517e-006
415
root  10.4114 39.8903 12.7501 169.173 72.7895 173.111
RightUpLeg  -3.51438 -27.9257 -13.6634
RightLeg  20.5162 -8.50643 -3.33933
RightFoot  -4.90474 -0.310776 4.92931
RightToes  0.000481921 0.542163 -0.142578
Spine  19.1909 0.778536 5.8564
Spine1  8.56702 4.47499 -9.64582
HEad  5.13734 -1.83103 0.914078
LeftShoulder1  6.12079 -13.939 -29.0139
LeftArm  -1.48945 -29.3483 -52.94
LeftForeArm  -170.359 -58.8284 -165.234
LeftHand  -0.25398 0.0180481 5.50724
RightShoulder  2.91098 8.76233 17.1225
RightArm  -15.6386 41.9584 54.7552
RightForeArm  177.236 66.1544 158.656
RightHand  -0.493359 2.05191 -7.90693
LeftUpLeg  -9.3745 9.6134 3.4137
LeftLeg  14.8502 -1.40881 -0.444899
LeftFoot  0.99521 0.411784 -3.86642
LeftToes  1.06245e-005 4.65869e-005 -8.65517e-006
416
root  10.2638 39.7764 12.5556 166.375 75.8972 171.126
RightUpLeg  -4.36843 -25.7628 -13.6036
RightLeg  21.6108 -7.34159 -3.39422
RightFoot  -5.06792 -0.30992 5.0222
RightToes  0.000481921 0.542163 -0.142578
Spine  19.8014 0.429508 5.62899
Spine1  8.07963 3.89528 -9.04632
HEad  4.71817 -0.347141 0.33347
LeftShoulder1  6.23603 -14.2268 -29.0945
LeftArm  -2.34983 -30.0811 -52.9143
LeftForeArm  -170.925 -58.2716 -165.502
LeftHand  -0.25398 0.0180481 5.50724
RightShoulder  2.73683 8.75917 15.5798
RightArm  -13.1923 46.3412 56.1025
RightForeArm  173.309 66.9666 157.407
RightHand  -0.601634 2.96418 -8.62385
LeftUpLeg  -8.9994 11.0495 3.43599
LeftLeg  16.7727 0.0234861 0.239729
LeftFoot  -0.337954 0.378977 -3.91404
LeftToes  1.06245e-005 4.65869e-005 -8.65517e-006
